<?xml version="1.0" encoding="utf-8"?>
<!-- Generator: Adobe Illustrator 22.0.1, SVG Export Plug-In . SVG Version: 6.00 Build 0)  -->
<svg version="1.1" id="Vizient_logo" xmlns="http://www.w3.org/2000/svg" x="0px"
     y="0px" viewBox="0 0 380.4 94.6" style="enable-background:new 0 0 380.4 94.6;" xml:space="preserve">
<style type="text/css">
	.st0{fill:#FFFFFF;}
</style>
<title>vzt_logo_rgb_orn</title>
<path class="st0" d="M25.1,90.6C8,70.3,0.1,30.8,0,30.3c-0.2-1,0.3-2.1,2-2.1h11.1c1-0.1,1.9,0.7,2.1,1.7
	c4.4,20.8,13,40.7,17.1,46.3c4.1-5.6,12.6-25.5,17.1-46.3c0.1-1,1.1-1.8,2.1-1.7h11.1c1.8,0,2.2,1.2,2,2.1
	c-0.1,0.5-7.9,40-25.1,60.3c-1.7,2.2-4.4,3.4-7.1,3.4C29.5,94.1,26.9,92.8,25.1,90.6z M81.2,0c-5,0-9,4-9,9s4,9,9,9s9-4,9-9
	S86.2,0,81.2,0z M166,0c-5,0-9,4-9,9s4,9,9,9s9-4,9-9S171,0,166,0z M86.3,28.2H76.1c-1.6,0-2.3,0.7-2.3,2.2v60.8
	c0,1.5,0.8,2.2,2.3,2.2h10.2c1.6,0,2.3-0.7,2.3-2.2V30.4C88.6,28.9,87.8,28.2,86.3,28.2z M171.1,28.2H161c-1.6,0-2.4,0.7-2.4,2.2
	v60.8c0,1.5,0.8,2.2,2.4,2.2h10.2c1.6,0,2.3-0.7,2.3-2.2V30.4C173.5,28.9,172.7,28.2,171.1,28.2z M250.2,91.2c0,1.5,0.8,2.2,2.4,2.2
	h10.2c1.6,0,2.4-0.7,2.4-2.2V42c3-2.1,12.5-5.3,19.4-1.2c4.2,2.5,5.8,9.2,5.7,17v33.3c0,1.5,0.8,2.2,2.3,2.2h10.2
	c1.6,0,2.4-0.7,2.4-2.2V56.7c0-20.3-9.3-30.6-27.9-30.8c-9-0.1-19,3.4-24.2,8c-1.7,1.4-2.7,3.5-2.7,5.7L250.2,91.2z M352.3,40.3
	c1.5,0,2.2-0.8,2.2-2.3v-7.4c0-1.6-0.7-2.3-2.2-2.3h-15.9V12.9c0-1.5-0.8-2.2-2.4-2.2h-10.2c-1.6,0-2.3,0.7-2.3,2.2v15.2h-8.5
	c-1.5,0-2.2,0.8-2.2,2.3v7.4c0,1.6,0.7,2.3,2.2,2.3h8.5v31.3c0,9.3,3.5,14.4,5.2,16.4s6.2,6.4,15.1,6.4c6.5-0.2,12.7-2.8,17.3-7.3
	c1.1-1.1,0.9-1.8,0.3-2.6l-5.1-6.7c-0.6-0.8-1.7-1-2.5-0.5c-0.1,0.1-0.2,0.1-0.2,0.2c-1.8,1.5-5.6,4.7-10.7,2.8
	c-3.7-1.4-4.5-5.6-4.5-8.7V40.3H352.3z M226,65.6h-27.1c0,8.6,6,16.3,15.6,16.3c5.9,0,11.6-2.2,15.9-6.1c0.6-0.7,1.6-0.8,2.3-0.2
	c0.2,0.1,0.3,0.3,0.4,0.5l5.2,7.4c0.2,0.3,0.4,1-0.6,2c-6.2,6.2-14,9.3-23.6,9.2c-19.7,0-29.9-16.1-29.9-34.4
	c0-22,14.1-34.3,30.1-34.3c13.8,0,25.8,10.5,25.8,25.2C240.2,60.7,235.5,65.6,226,65.6z M226.5,50.7c0-5.1-3.2-12.7-12.7-12.7
	c-3.6,0-12.9,1.4-14.3,15.7h24.2C225.6,53.7,226.5,52.7,226.5,50.7L226.5,50.7z M146.8,93.3c1.5,0,2.2-0.8,2.2-2.3v-8.2
	c0-1.6-0.7-2.3-2.2-2.3H116c3-7.5,21.9-25.8,28.4-36.2c2.4-3.9,3.6-6.8,3.6-8.8c0-2.3-1.1-7.3-8.7-7.3h-36.1c-1.5,0-2.2,0.8-2.2,2.3
	v8.1c0,1.6,0.7,2.3,2.2,2.3h27.5c-1.4,2.7-19.6,22.2-26.4,33.8c-1.8,3-4.2,7.9-4.2,11.6c0,4.7,2.8,7,8.3,7L146.8,93.3z M379.1,87.6
	c0,3-2.5,5.5-5.5,5.5c-3,0-5.5-2.5-5.5-5.5c0-3,2.5-5.5,5.5-5.5S379.1,84.6,379.1,87.6C379.1,87.6,379.1,87.6,379.1,87.6z
	 M373.6,80.9c-3.7,0-6.7,3-6.7,6.8s3,6.7,6.8,6.7c3.7,0,6.7-3,6.7-6.7C380.4,83.9,377.3,80.9,373.6,80.9
	C373.6,80.9,373.6,80.9,373.6,80.9z M375.2,91l-1.6-2.7h-1.4V91h-1.1v-7h2.6c0.6,0,1.2,0.1,1.7,0.5c0.4,0.4,0.6,1,0.6,1.6v0.2
	c0,0.4-0.1,0.9-0.4,1.2c-0.3,0.3-0.6,0.5-1,0.6l1.7,2.9H375.2z M372.3,87.3h1.2c0.4,0,0.8-0.1,1.1-0.2c0.3-0.2,0.4-0.5,0.4-0.8v-0.2
	c0-0.3-0.1-0.7-0.4-0.9c-0.3-0.2-0.6-0.3-1-0.2h-1.5V87.3z"/>
</svg>
